<svg xmlns="http://www.w3.org/2000/svg" viewBox="0 0 240 280" role="img" aria-labelledby="title desc">
  <title id="title">MES Wadia College of Engineering emblem</title>
  <desc id="desc">A stylized blue and gold college shield used on the login screen.</desc>
  <defs>
    <linearGradient id="banner" x1="0" x2="1" y1="0" y2="1">
      <stop offset="0%" stop-color="#0e70dd" />
      <stop offset="100%" stop-color="#0957b1" />
    </linearGradient>
  </defs>
  <path d="M120 18c39 0 74 8 96 21v106c0 64-40 99-96 117C64 244 24 209 24 145V39c22-13 57-21 96-21Z" fill="#111827" opacity=".08"/>
  <path d="M120 12c37 0 70 8 92 20v105c0 62-38 95-92 113-54-18-92-51-92-113V32c22-12 55-20 92-20Z" fill="#0f172a" stroke="#0f172a" stroke-width="4"/>
  <path d="M120 20c34 0 64 7 84 17v98c0 57-34 87-84 104-50-17-84-47-84-104V37c20-10 50-17 84-17Z" fill="#ffffff"/>
  <path d="M120 20v219c50-17 84-47 84-104V37c-20-10-50-17-84-17Z" fill="#59a9e7"/>
  <path d="M36 37c20-10 50-17 84-17v219c-50-17-84-47-84-104V37Z" fill="#f3cc11"/>
  <path d="M120 20v111H36V37c20-10 50-17 84-17Z" fill="#f3cc11"/>
  <path d="M204 37v94h-84V20c34 0 64 7 84 17Z" fill="#59a9e7"/>
  <path d="M120 131v108c50-17 84-47 84-104v-4h-84Z" fill="#f3cc11"/>
  <path d="M36 131h84v108c-50-17-84-47-84-104v-4Z" fill="#59a9e7"/>
  <path d="M120 20v219" stroke="#0f172a" stroke-width="2"/>
  <path d="M36 131h168" stroke="#0f172a" stroke-width="2"/>
  <path d="M49 57c25 2 40 14 55 34-23-5-37-3-55 4 12-13 18-24 20-38-6 9-13 16-20 21 0-8 0-14 0-21Z" fill="none" stroke="#0f172a" stroke-width="2.2" stroke-linecap="round" stroke-linejoin="round"/>
  <path d="M140 92c10-18 23-28 42-30-6 6-10 14-12 24 11-6 20-9 28-9-12 7-19 14-23 24-9-6-21-8-35-9Z" fill="none" stroke="#0f172a" stroke-width="2.2" stroke-linecap="round" stroke-linejoin="round"/>
  <path d="M73 156h34v32H73z" fill="none" stroke="#0f172a" stroke-width="2.2"/>
  <path d="M90 156v32" stroke="#0f172a" stroke-width="2"/>
  <path d="M76 160c4-2 9-3 14-3s10 1 14 3" fill="none" stroke="#0f172a" stroke-width="1.6"/>
  <path d="M76 166c4-2 9-3 14-3s10 1 14 3" fill="none" stroke="#0f172a" stroke-width="1.6"/>
  <path d="M76 172c4-2 9-3 14-3s10 1 14 3" fill="none" stroke="#0f172a" stroke-width="1.6"/>
  <path d="M155 150c7 8 7 20 0 28v11c0 4 2 7 5 10-5 2-11 2-16 0 3-3 5-6 5-10v-11c-8-8-8-20 0-28" fill="none" stroke="#0f172a" stroke-width="2.2" stroke-linecap="round" stroke-linejoin="round"/>
  <path d="M149 156h24" stroke="#0f172a" stroke-width="5" stroke-linecap="round"/>
  <path d="M170 151l5 13" stroke="#0f172a" stroke-width="2"/>
  <path d="M142 247c-19 8-43 8-62 0" fill="none" stroke="#dbeafe" stroke-width="2" opacity=".9"/>
  <path d="M44 7c20-6 49-7 76-7s56 1 76 7l-8 14c-18-4-41-6-68-6s-50 2-68 6L44 7Z" fill="url(#banner)"/>
  <text x="120" y="255" text-anchor="middle" font-family="Georgia, serif" font-size="15" font-weight="700" fill="#0f172a">MES WCOE</text>
</svg>
